<svg width="702" height="209" viewBox="0 0 702 209" fill="none" xmlns="http://www.w3.org/2000/svg">
<path d="M76.86 7.69916C85.19 7.69916 92.86 13.6991 92.86 24.3691C92.8504 27.6005 92.303 30.8076 91.24 33.8591L36.6 190.859C32.43 202.669 24.1 208.449 16 208.449C7.66 208.449 0 202.449 0 191.779C0.00954174 188.548 0.557022 185.341 1.62 182.289L56.2599 25.2891C59.7199 13.2591 68.75 7.69916 76.86 7.69916Z" fill="#FF1C80"/>
<path d="M304.97 142.449C304.874 144.109 304.537 145.746 303.97 147.309C286.97 193.619 262.7 208.429 238.38 208.429C216.77 208.429 198.38 196.629 198.38 175.559C198.468 170.25 199.483 164.998 201.38 160.039L220.05 112.119C220.676 110.493 221.015 108.771 221.05 107.029C221.05 102.629 217.61 99.8492 213.19 99.8492C205.08 99.8492 195.75 107.029 191.33 118.599L163.08 193.849C161.573 198.116 158.779 201.809 155.084 204.421C151.389 207.032 146.975 208.433 142.45 208.429C134.1 208.429 126.73 203.569 126.73 194.769C126.855 191.816 127.533 188.912 128.73 186.209L157.47 110.959C158.107 109.578 158.447 108.08 158.47 106.559C158.47 102.399 155.03 99.8492 150.12 99.8492C142.75 99.8492 134.89 105.399 129.73 115.359L100.39 194.569C98.8922 198.69 96.1479 202.242 92.5386 204.731C88.9292 207.22 84.6341 208.523 80.25 208.459C71.65 208.459 63.79 203.599 63.79 195.039C63.8034 193.142 64.1416 191.262 64.79 189.479L104.1 82.7491C107.04 76.0291 114.91 72.5591 122.52 72.5591C127.92 72.5591 133.33 74.4092 136.03 77.8792C140.45 75.3392 146.35 72.5591 156.42 72.5591C170.67 72.5591 178.77 77.6492 183.93 83.2092C195.21 74.5692 207.97 72.5692 216.83 72.5692C239.18 72.5692 257.6 84.8392 257.6 104.519C257.461 108.953 256.635 113.339 255.15 117.519L234.27 171.519C233.853 172.545 233.685 173.656 233.78 174.759C233.78 178.229 236.23 181.009 241.15 181.009C252.69 181.009 263.49 169.669 274.3 141.879C276.76 134.479 283.88 130.999 290.51 130.999C297.88 130.869 304.97 135.039 304.97 142.449Z" fill="#FF1C80"/>
<path d="M571.09 132.489C578.03 132.489 584.52 136.429 584.52 143.609C584.51 145.272 584.195 146.92 583.59 148.469C568.31 192.689 531.73 208.469 499.59 208.469C465.78 208.469 439.85 191.339 439.85 163.789C439.969 158.184 440.981 152.635 442.85 147.349L456.51 107.759C464.62 84.6092 484.76 72.5692 505.37 72.5692C531.53 72.5692 548.89 89.4692 548.89 111.459C548.812 115.767 548.19 120.047 547.04 124.199C544.145 134.086 538.101 142.757 529.827 148.894C521.553 155.031 511.501 158.298 501.2 158.199C492.609 158.194 484.189 155.791 476.89 151.259L475.03 155.659C474.223 157.722 473.832 159.924 473.88 162.139C473.88 172.789 484.53 180.889 501.43 180.889C513.236 180.892 524.759 177.276 534.447 170.528C544.134 163.78 551.521 154.224 555.61 143.149C557.66 135.969 564.61 132.489 571.09 132.489ZM490.97 111.189L486.11 125.079C489.814 126.997 493.94 127.953 498.11 127.859C505.05 127.859 512 125.079 514.31 117.439C514.958 115.662 515.273 113.781 515.24 111.889C515.24 105.169 511.07 99.8892 504.59 99.8892C499.32 99.8492 493.53 104.019 490.97 111.189Z" fill="#FF1C80"/>
<path d="M144.23 35.8591C147.128 32.7909 149.048 28.9294 149.744 24.7664C150.44 20.6035 149.881 16.3275 148.139 12.4832C146.396 8.63891 143.549 5.40027 139.96 3.1798C136.37 0.959323 132.201 -0.142454 127.983 0.0147579C123.765 0.17197 119.69 1.58108 116.276 4.06261C112.861 6.54413 110.263 9.98574 108.812 13.9491C107.36 17.9124 107.121 22.2181 108.125 26.3177C109.13 30.4173 111.331 34.1252 114.45 36.9692C113.31 40.7392 110.81 44.7291 107.7 48.5591C106.849 49.6068 106.389 50.9176 106.398 52.2673C106.407 53.6169 106.885 54.9214 107.75 55.9575C108.615 56.9937 109.813 57.697 111.139 57.9473C112.465 58.1975 113.837 57.979 115.02 57.3292C125.479 51.6613 135.134 44.6224 143.73 36.3992C143.79 36.3492 144.23 35.8591 144.23 35.8591Z" fill="#FF1C80"/>
<path d="M421.3 141.749C420.83 146.849 425.69 150.319 432.18 150.319C439.12 150.319 444.45 145.919 447.18 138.739C448.278 135.692 450.29 133.057 452.94 131.194C455.59 129.331 458.75 128.331 461.99 128.329C468.99 128.329 475.19 132.729 475.19 140.829C475.136 142.073 474.983 143.31 474.73 144.529C470.56 162.589 451.11 177.869 432.59 177.869C424.25 177.869 416.38 175.559 410.59 171.389C401.59 194.539 378.59 208.389 356.87 208.389C344.87 208.389 333.02 203.299 325.87 195.389C317.53 203.259 306.87 208.389 294.87 208.389C276.35 208.389 261.07 196.389 261.07 177.599C261.082 173.165 261.864 168.766 263.38 164.599L290.7 85.5992C293.95 76.3392 300.89 72.4092 307.37 72.4092C315.94 72.4092 324.28 78.8892 324.28 88.4092C324.243 90.8657 323.772 93.2963 322.89 95.5892L297.19 170.369C296.73 171.711 296.493 173.12 296.49 174.539C296.455 175.369 296.592 176.198 296.894 176.972C297.195 177.746 297.654 178.45 298.242 179.037C298.83 179.625 299.533 180.084 300.307 180.385C301.081 180.687 301.91 180.824 302.74 180.789C310.61 180.789 318.74 172.689 322.66 161.109L348.82 85.6292C352.06 76.3692 359 72.4391 365.49 72.4391C374.05 72.4391 382.39 78.9191 382.39 88.4391C382.358 90.8961 381.887 93.3276 381 95.6191L354.6 168.779C354.13 170.356 353.897 171.994 353.91 173.639C353.91 177.809 356.69 180.819 361.32 180.819C367.4 180.819 372.83 176.909 376.73 170.749L406.23 85.6592C409.47 76.3992 416.42 72.4692 422.9 72.4692C431.47 72.4692 439.8 78.9492 439.8 88.4692C439.768 90.9262 439.297 93.3577 438.41 95.6492L421.3 141.749Z" fill="#FF1C80"/>
<path d="M685.97 126.939C680.88 126.939 675.79 129.249 673.97 134.809C669.11 148.239 658.69 156.569 646.42 156.569H645.27L655.68 128.329C657.886 122.559 659.064 116.446 659.16 110.269C659.07 87.5692 641.97 72.5692 621.56 72.5692C617.794 72.5215 614.045 73.0682 610.45 74.1891L625.45 30.8892C626.386 28.2838 626.932 25.5542 627.07 22.7891C627.07 13.0691 619.2 7.50916 611.07 7.50916C603.89 7.50916 596.95 11.9092 593.71 21.3992C577.04 70.0192 562.91 108.919 548.1 151.979C546.097 157.7 545.039 163.708 544.97 169.769C544.97 195.009 565.8 208.429 588.97 208.429C605.87 208.429 624.62 201.949 634.58 183.429C637.486 183.897 640.426 184.128 643.37 184.119C667.92 184.119 692.69 169.539 701.02 143.119C701.458 141.934 701.695 140.683 701.72 139.419C701.67 131.799 693.57 126.939 685.97 126.939ZM624.39 114.939L619.53 128.829L604.75 170.509C601.97 178.149 595.02 180.929 589.01 180.929C582.29 180.929 577.89 177.229 577.89 170.749C577.851 168.365 578.244 165.993 579.05 163.749C585.3 146.389 590.39 131.799 596.41 114.199C601.05 105.639 608.41 99.8492 615.17 99.8492C621.17 99.8492 625.35 103.779 625.35 109.569C625.333 111.392 624.991 113.197 624.34 114.899L624.39 114.939Z" fill="#FF1C80"/>
</svg>
